<svg width="51" height="39" viewBox="0 0 51 39" fill="none" xmlns="http://www.w3.org/2000/svg">
<path d="M12.5809 38.3333C9.12412 38.3333 6.17031 37.1048 3.71944 34.6478C1.26857 32.1909 0.0438921 29.1879 0.0454116 25.6389C0.0454116 22.597 0.938088 19.8865 2.72344 17.5075C4.5088 15.1285 6.84495 13.6075 9.7319 12.9446C10.6816 9.35659 12.5809 6.45112 15.4298 4.22814C18.2788 2.00517 21.5076 0.893677 25.1163 0.893677C29.5607 0.893677 33.3312 2.4833 36.4279 5.66255C39.5245 8.8418 41.0721 12.7121 41.0706 17.2735C43.6916 17.5855 45.8667 18.7461 47.5958 20.7554C49.325 22.7647 50.1888 25.114 50.1873 27.8034C50.1873 30.7284 49.1897 33.215 47.1947 35.2632C45.1997 37.3115 42.7784 38.3349 39.931 38.3333H12.5809ZM12.5809 33.6533H39.931C41.5264 33.6533 42.8749 33.0878 43.9765 31.9569C45.0781 30.8259 45.6289 29.4414 45.6289 27.8034C45.6289 26.1654 45.0781 24.7809 43.9765 23.6499C42.8749 22.519 41.5264 21.9535 39.931 21.9535H36.5122V17.2735C36.5122 14.0365 35.4007 11.2769 33.1778 8.99467C30.9548 6.71242 28.2677 5.57207 25.1163 5.57363C21.9635 5.57363 19.2756 6.71476 17.0526 8.99701C14.8297 11.2793 13.7189 14.0381 13.7205 17.2735H12.5809C10.3777 17.2735 8.49735 18.073 6.93992 19.672C5.38248 21.271 4.60376 23.2014 4.60376 25.4634C4.60376 27.7254 5.38248 29.6559 6.93992 31.2549C8.49735 32.8539 10.3777 33.6533 12.5809 33.6533Z" fill="#006BA8"/>
</svg>
