<svg width="18" height="18" viewBox="0 0 18 18" fill="none" xmlns="http://www.w3.org/2000/svg">
<path d="M0 6C0 8.20914 1.79086 10 4 10V10C6.20914 10 8 8.20914 8 6V4C8 1.79086 6.20914 0 4 0V0C1.79086 0 0 1.79086 0 4V6ZM0 15C0 16.6569 1.34315 18 3 18H5C6.65685 18 8 16.6569 8 15V15C8 13.3431 6.65685 12 5 12H3C1.34315 12 0 13.3431 0 15V15ZM10 14C10 16.2091 11.7909 18 14 18V18C16.2091 18 18 16.2091 18 14V12C18 9.79086 16.2091 8 14 8V8C11.7909 8 10 9.79086 10 12V14ZM13 0C11.3431 0 10 1.34315 10 3V3C10 4.65685 11.3431 6 13 6H15C16.6569 6 18 4.65685 18 3V3C18 1.34315 16.6569 0 15 0H13Z" fill="#505050"/>
</svg>
