<svg width="130" height="126" viewBox="0 0 130 126" fill="none" xmlns="http://www.w3.org/2000/svg">
<rect x="22" y="30" width="70" height="72" fill="black"/>
<path d="M127.521 44.3209L115.428 38.2744C113.191 37.186 110.409 38.0326 109.321 40.2698C108.172 42.5674 109.079 45.2884 111.316 46.3767L120.93 51.1535V80.1163L98.2558 80.1768V18.1395C98.2558 6.04651 90.1535 0 80.1163 0H31.7442C21.707 0 13.6047 6.04651 13.6047 18.1395V116.395H4.53488C2.05581 116.395 0 118.451 0 120.93C0 123.409 2.05581 125.465 4.53488 125.465H107.326C109.805 125.465 111.86 123.409 111.86 120.93C111.86 118.451 109.805 116.395 107.326 116.395H98.2558V89.2465L125.465 89.1861C128.005 89.1861 130 87.1302 130 84.6512V48.3721C130 46.6791 129.033 45.107 127.521 44.3209ZM28.7209 29.5674C28.7209 21.1628 33.8605 18.1395 40.1488 18.1395H71.7721C78 18.1395 83.1395 21.1628 83.1395 29.5674V37.0047C83.1395 45.3488 78 48.3721 71.7116 48.3721H40.1488C33.8605 48.3721 28.7209 45.3488 28.7209 36.9442V29.5674ZM31.7442 61.9767H49.8837C52.3628 61.9767 54.4186 64.0326 54.4186 66.5116C54.4186 68.9907 52.3628 71.0465 49.8837 71.0465H31.7442C29.2651 71.0465 27.2093 68.9907 27.2093 66.5116C27.2093 64.0326 29.2651 61.9767 31.7442 61.9767Z" fill="#006BA8"/>
<path d="M110.215 40.717L110.215 40.717L110.22 40.7072C111.047 39.0069 113.206 38.3087 114.986 39.1715C114.987 39.1722 114.989 39.1729 114.99 39.1737L127.066 45.2116C128.249 45.8297 129 47.0611 129 48.3721V84.6512C129 86.5867 127.444 88.1861 125.465 88.1861L125.463 88.1861L98.2536 88.2465L97.2558 88.2487V89.2465V116.395V117.395H98.2558H107.326C109.252 117.395 110.86 119.003 110.86 120.93C110.86 122.857 109.252 124.465 107.326 124.465H4.53488C2.6081 124.465 1 122.857 1 120.93C1 119.003 2.6081 117.395 4.53488 117.395H13.6047H14.6047V116.395V18.1395C14.6047 12.3288 16.5434 8.07649 19.5882 5.27021C22.6464 2.45161 26.9207 1 31.7442 1H80.1163C84.9397 1 89.2141 2.45161 92.2723 5.27021C95.3171 8.07649 97.2558 12.3288 97.2558 18.1395V80.1768V81.1794L98.2585 81.1768L120.933 81.1163L121.93 81.1136V80.1163V51.1535V50.5337L121.375 50.2579L111.761 45.4812L111.754 45.4775C110.033 44.6405 109.307 42.5331 110.215 40.717ZM40.1488 17.1395C36.8616 17.1395 33.7351 17.9282 31.4194 19.9481C29.0788 21.9898 27.7209 25.1531 27.7209 29.5674V36.9442C27.7209 41.3585 29.0788 44.5219 31.4194 46.5635C33.7351 48.5834 36.8616 49.3721 40.1488 49.3721H71.7116C74.9988 49.3721 78.1243 48.5835 80.4395 46.5724C82.7802 44.5392 84.1395 41.391 84.1395 37.0047V29.5674C84.1395 25.1532 82.7817 21.9907 80.45 19.9493C78.1424 17.9292 75.0311 17.1395 71.7721 17.1395H40.1488ZM49.8837 60.9767H31.7442C28.7128 60.9767 26.2093 63.4803 26.2093 66.5116C26.2093 69.543 28.7128 72.0465 31.7442 72.0465H49.8837C52.9151 72.0465 55.4186 69.543 55.4186 66.5116C55.4186 63.4803 52.9151 60.9767 49.8837 60.9767Z" stroke="black" stroke-opacity="0.4" stroke-width="2"/>
</svg>
