<svg xmlns="http://www.w3.org/2000/svg" width="70" height="70" viewBox="0 0 70 70" fill="none">
  <path d="M69.3212 41.3189C68.5139 38.1725 67.0119 35.2671 64.9353 32.8353C62.8586 30.4035 60.2652 28.5129 57.3625 27.3148C54.4599 26.1168 51.3287 25.6446 48.2198 25.936C45.1108 26.2275 42.1105 27.2745 39.459 28.9932L44.9203 6.24026C45.0557 5.67496 45.0177 5.07954 44.8114 4.53803C44.6051 3.99653 44.2411 3.5363 43.7707 3.22229C41.5035 1.72845 38.9715 0.725756 36.3253 0.273876C33.6791 -0.178003 30.9729 -0.0698349 28.3676 0.591945C25.7623 1.25373 23.3112 2.45559 21.1602 4.12603C19.0092 5.79647 17.2021 7.90135 15.8466 10.3154C14.4911 12.7295 13.6148 15.4034 13.2699 18.1781C12.925 20.9527 13.1185 23.7714 13.8389 26.4665C14.5593 29.1615 15.7919 31.6778 17.4634 33.8656C19.1348 36.0534 21.2109 37.868 23.5682 39.2015L1.9529 45.6442C1.41591 45.8038 0.940487 46.1353 0.593733 46.5919C0.246979 47.0486 0.0463966 47.6073 0.0202901 48.1893C-0.184863 52.9384 1.17065 57.6183 3.86236 61.4539C6.55407 65.2894 10.4205 68.0506 14.8215 69.2803C16.5189 69.7558 18.2686 69.9978 20.0262 70C22.7044 69.9926 25.3539 69.4244 27.8179 68.3292C30.2818 67.2339 32.51 65.6338 34.3706 63.6237C36.2311 61.6135 37.6862 59.2342 38.6495 56.6266C39.6128 54.019 40.0648 51.2363 39.9788 48.4431L56.1328 64.7568C56.5345 65.1624 57.0482 65.4259 57.6013 65.5101C58.1544 65.5943 58.7189 65.495 59.2149 65.2262C63.2568 63.0379 66.4618 59.4754 68.2995 55.1281C70.1372 50.7808 70.4977 45.909 69.3212 41.3189ZM35.1472 45.7867C33.839 45.9546 32.5125 45.7138 31.3354 45.095C30.1583 44.4761 29.1835 43.507 28.5343 42.31C27.885 41.1131 27.5905 39.7421 27.688 38.3705C27.7855 36.9989 28.2706 35.6883 29.082 34.6044C29.8933 33.5205 30.9945 32.712 32.2462 32.2811C33.4979 31.8502 34.844 31.8163 36.1141 32.1837C37.3843 32.5511 38.5215 33.3033 39.382 34.3451C40.2425 35.3869 40.7876 36.6716 40.9484 38.0367C41.164 39.8671 40.6739 41.7119 39.586 43.1653C38.4981 44.6187 36.9014 45.5617 35.1472 45.7867Z" fill="#006BA8"/>
  <path d="M38.4866 28.7598L37.9023 31.194L40.0029 29.8323C42.5207 28.2003 45.3668 27.2078 48.3131 26.9316C51.2594 26.6554 54.2276 27.1027 56.981 28.2392C59.7346 29.3757 62.199 31.171 64.1748 33.4847C66.1507 35.7986 67.5825 38.5663 68.3525 41.5672C69.4749 45.9462 69.1306 50.5939 67.3784 54.7387C65.6265 58.883 62.5754 62.2697 58.7388 64.3468L58.7385 64.347C58.4322 64.513 58.0877 64.5726 57.7519 64.5215C57.4158 64.4703 57.0971 64.3094 56.8433 64.0532C56.8433 64.0531 56.8433 64.0531 56.8432 64.0531L40.6893 47.7395L38.901 45.9334L38.9792 48.4739C39.0614 51.1392 38.63 53.7938 37.7114 56.2801C36.793 58.7663 35.4067 61.0321 33.6367 62.9444C31.8668 64.8566 29.7496 66.3761 27.4117 67.4154C25.0743 68.4544 22.5625 68.9928 20.0247 69C18.3591 68.9977 16.7006 68.7682 15.0912 68.3173L15.0905 68.3172C10.9183 67.1514 7.24355 64.5311 4.68091 60.8794C2.11791 57.2273 0.823743 52.7655 1.01932 48.2334C1.03661 47.8511 1.16844 47.4886 1.39015 47.1967C1.61158 46.9051 1.90965 46.7003 2.23777 46.6027L2.23855 46.6025L23.8538 40.1598L26.1064 39.4884L24.0606 38.3311C21.8228 37.0652 19.8489 35.3409 18.258 33.2585C16.6671 31.1761 15.4921 28.7786 14.805 26.2082C14.1179 23.6378 13.9332 20.9487 14.2623 18.3014C14.5913 15.6542 15.4272 13.1048 16.7186 10.805C18.0099 8.50529 19.7296 6.50309 21.7735 4.91585C23.8173 3.3287 26.1437 2.1886 28.6138 1.56117C31.0838 0.933758 33.6488 0.831293 36.157 1.25961C38.6641 1.68774 41.0652 2.63782 43.2175 4.05539C43.5098 4.25106 43.743 4.54236 43.8769 4.89399C44.0113 5.2468 44.0365 5.63691 43.9478 6.00719L38.4866 28.7598ZM30.87 45.9801C32.2274 46.6937 33.7607 46.9728 35.2745 46.7786C37.3049 46.5181 39.1414 45.4281 40.3865 43.7646C41.6307 42.1025 42.1866 40.0004 41.9415 37.9197C41.7587 36.3671 41.1383 34.9011 40.153 33.7083C39.1675 32.515 37.8598 31.6477 36.392 31.2231C34.9237 30.7984 33.3669 30.8377 31.9207 31.3355C30.475 31.8332 29.2099 32.7647 28.2814 34.0052C27.3532 35.2452 26.8014 36.7398 26.6906 38.2996C26.5797 39.8593 26.9142 41.4206 27.6552 42.7868C28.3965 44.1534 29.5132 45.2668 30.87 45.9801Z" stroke="black" stroke-opacity="0.4" stroke-width="2"/>
</svg>