<svg width="24" height="24" viewBox="0 0 24 24" fill="none" xmlns="http://www.w3.org/2000/svg">
<path d="M12 22C17.5228 22 22 17.5228 22 12C22 6.47715 17.5228 2 12 2C6.47715 2 2 6.47715 2 12C2 17.5228 6.47715 22 12 22Z" stroke="#505050" stroke-width="2.5"/>
<path d="M13.9301 17.869C13.6081 18.799 12.2931 18.798 11.9721 17.868L10.3521 13.174L5.78208 11.231C4.87708 10.846 4.96808 9.533 5.91808 9.277L16.1501 6.516C16.332 6.46683 16.5238 6.4682 16.705 6.51995C16.8862 6.57171 17.0498 6.67189 17.1783 6.80972C17.3067 6.94756 17.3952 7.11781 17.4341 7.30217C17.473 7.48653 17.4609 7.67801 17.3991 7.856L13.9301 17.869Z" stroke="#505050" stroke-width="2.5"/>
</svg>
