<svg width="62" height="57" viewBox="0 0 62 57" fill="none" xmlns="http://www.w3.org/2000/svg">
<g filter="url(#filter0_d_187_115)">
<path fill-rule="evenodd" clip-rule="evenodd" d="M33.4847 45.1641C35.0366 45.0456 38.2184 44.9845 40.8369 45.4327C37.2573 47.7662 32.9829 49.1221 28.3919 49.1221C21.5245 49.1221 15.3653 46.088 11.1807 41.2866C11.4736 41.3428 11.848 41.3989 12.3858 41.4336C13.702 41.5186 16.3759 42.1291 19.1213 42.7558C22.2566 43.4717 25.4852 44.2087 26.8913 44.2087C29.0012 44.2087 30.0743 43.9055 30.3471 43.7538C27.8486 43.5093 22.6955 42.6951 20.1586 41.2721C29.3842 41.4373 42.8301 41.6923 50.6729 41.8432C50.9761 41.6308 51.2459 40.8696 49.8999 39.523C49.5807 39.2036 49.2795 38.9171 49.001 38.652C47.8115 37.5201 47.0352 36.7815 47.0352 35.565C47.0352 34.0638 47.0806 33.6543 47.8991 35.565C48.5395 37.0598 49.5137 36.1601 50.6043 35.153C50.9078 34.8728 51.2202 34.5843 51.5368 34.3367C51.6051 34.2834 51.6832 34.2226 51.7702 34.1549C53.5386 32.7779 58.9744 28.5455 59.4942 26.4208C60.04 24.1917 60.1766 23.2362 57.0844 22.1444C53.9923 21.0526 49.809 20.1882 45.0344 20.1427C40.2599 20.0972 29.9378 22.0079 27.8461 22.6449C25.7798 23.274 25.0891 24.2584 23.626 26.3435L23.5718 26.4208C23.3957 26.6717 23.2328 26.9062 23.08 27.1262C21.9306 28.7813 21.3548 29.6105 20.0704 30.3333C19.0772 30.8922 12.4961 34.1626 7.93067 36.4198C7.69582 35.9462 7.47691 35.4633 7.27469 34.9717C11.3139 33.0602 17.7321 30.0054 18.6154 29.5143C19.5977 28.9684 20.5707 28.195 20.9345 27.8766V23.0088H23.8902L25.1634 22.1899H20.2979L16.2054 26.1478V22.7358H17.3877L18.6154 21.644H15.7053L6.08147 31.1368C5.74322 29.5729 5.56511 27.9494 5.56511 26.2843C5.56511 26.1247 5.56677 25.9655 5.57005 25.8066L5.57326 25.8061C5.94253 21.8282 8.77693 18.277 13.1082 15.7747C12.3645 18.0823 11.8491 20.5889 11.6066 23.2272L13.6853 21.1562C14.0303 18.8222 14.6047 16.6248 15.3697 14.6248C18.7333 13.1254 22.7537 12.1917 27.0976 12.0382V19.9776C27.6243 19.661 28.2748 19.1222 28.9606 18.4823V12.0205C33.169 12.0888 37.0945 12.8887 40.4409 14.2296C40.519 14.4248 40.5953 14.6219 40.6697 14.821L45.9223 15.1905C44.6688 14.3323 43.2763 13.5639 41.7689 12.901C40.2607 9.46784 38.2055 6.63067 35.7911 4.67301C41.2539 6.54464 45.7822 10.4313 48.4897 15.4465L52.3583 15.6982C48.2929 6.49909 39.0916 0.0799561 28.3918 0.0799561C13.9265 0.0799561 2.20007 11.812 2.20007 26.2843C2.20007 40.7566 13.9265 52.4886 28.3918 52.4886C34.8034 52.4886 40.6769 50.1837 45.2298 46.3569C48.0759 46.4347 50.9354 45.2503 51.5369 44.7546C52.1554 44.2451 52.5222 43.7235 52.6283 43.5263C51.7794 43.9206 49.7817 44.6728 48.5813 44.5272C48.254 44.4875 47.7191 44.4175 47.0681 44.3323C44.7341 44.027 40.9074 43.5263 39.8052 43.5263C38.6775 43.5263 35.1216 44.6182 33.4847 45.1641ZM7.37691 17.3524C9.19595 15.594 11.5143 14.0802 14.1965 12.9007C15.5653 9.78501 17.3847 7.16007 19.5142 5.23807C14.0629 7.54257 9.69285 11.9051 7.37691 17.3524ZM34.2576 16.3667L29.9832 20.6431L34.9851 19.5967V17.2311L54.2651 18.4139V19.5967L54.9927 19.8242V17.5495L34.2576 16.3667ZM32.1815 24.6156L28.2093 25.403C27.9458 25.4552 27.8157 25.7548 27.9575 25.983L28.574 26.9752C28.6563 27.1077 28.8106 27.1773 28.9644 27.1514L32.8163 26.5028C33.0632 26.4612 33.2051 26.1984 33.1045 25.9692L32.6083 24.8383C32.5358 24.6732 32.3584 24.5806 32.1815 24.6156ZM27.0976 10.162C23.3051 10.2495 19.7277 10.8976 16.5481 11.9851C19.0644 7.11625 22.8361 3.88805 27.0976 3.49313V10.162ZM28.9606 10.1642V3.50216C33.184 3.93515 36.9192 7.15179 39.4172 11.9853C36.2636 10.9066 32.7186 10.2602 28.9606 10.1642Z" fill="#8091E8"/>
</g>
<defs>
<filter id="filter0_d_187_115" x="0.200073" y="0.0799561" width="61.6" height="56.4087" filterUnits="userSpaceOnUse" color-interpolation-filters="sRGB">
<feFlood flood-opacity="0" result="BackgroundImageFix"/>
<feColorMatrix in="SourceAlpha" type="matrix" values="0 0 0 0 0 0 0 0 0 0 0 0 0 0 0 0 0 0 127 0" result="hardAlpha"/>
<feOffset dy="2"/>
<feGaussianBlur stdDeviation="1"/>
<feComposite in2="hardAlpha" operator="out"/>
<feColorMatrix type="matrix" values="0 0 0 0 0 0 0 0 0 0 0 0 0 0 0 0 0 0 0.25 0"/>
<feBlend mode="normal" in2="BackgroundImageFix" result="effect1_dropShadow_187_115"/>
<feBlend mode="normal" in="SourceGraphic" in2="effect1_dropShadow_187_115" result="shape"/>
</filter>
</defs>
</svg>
