<svg width="82" height="82" viewBox="0 0 82 82" fill="none" xmlns="http://www.w3.org/2000/svg">
<g filter="url(#filter0_d_187_113)">
<path d="M77 38C77 57.8823 60.8823 74 41 74C21.1177 74 5 57.8823 5 38C5 18.1177 21.1177 2 41 2C60.8823 2 77 18.1177 77 38Z" fill="white"/>
</g>
<g filter="url(#filter1_d_187_113)">
<path fill-rule="evenodd" clip-rule="evenodd" d="M43.4847 57.1641C45.0366 57.0456 48.2184 56.9845 50.8369 57.4327C47.2573 59.7662 42.9829 61.1221 38.3919 61.1221C31.5245 61.1221 25.3653 58.088 21.1807 53.2866C21.4736 53.3428 21.848 53.3989 22.3858 53.4336C23.702 53.5186 26.3759 54.1291 29.1213 54.7558C32.2566 55.4717 35.4852 56.2087 36.8913 56.2087C39.0012 56.2087 40.0743 55.9055 40.3471 55.7538C37.8486 55.5093 32.6955 54.6951 30.1586 53.2721C39.3842 53.4373 52.8301 53.6923 60.6729 53.8432C60.9761 53.6308 61.2459 52.8696 59.8999 51.523C59.5807 51.2036 59.2795 50.9171 59.001 50.652C57.8115 49.5201 57.0352 48.7815 57.0352 47.565C57.0352 46.0638 57.0806 45.6543 57.8991 47.565C58.5395 49.0598 59.5137 48.1601 60.6043 47.153C60.9078 46.8728 61.2202 46.5843 61.5368 46.3367C61.6051 46.2834 61.6832 46.2226 61.7702 46.1549C63.5386 44.7779 68.9744 40.5455 69.4942 38.4208C70.04 36.1917 70.1766 35.2362 67.0844 34.1444C63.9923 33.0526 59.809 32.1882 55.0344 32.1427C50.2599 32.0972 39.9378 34.0079 37.8461 34.6449C35.7798 35.274 35.0891 36.2584 33.626 38.3435L33.5718 38.4208C33.3957 38.6717 33.2328 38.9062 33.08 39.1262C31.9306 40.7813 31.3548 41.6105 30.0704 42.3333C29.0772 42.8922 22.4961 46.1626 17.9307 48.4198C17.6958 47.9462 17.4769 47.4633 17.2747 46.9717C21.3139 45.0602 27.7321 42.0054 28.6154 41.5143C29.5977 40.9684 30.5707 40.195 30.9345 39.8766V35.0088H33.8902L35.1634 34.1899H30.2979L26.2054 38.1478V34.7358H27.3877L28.6154 33.644H25.7053L16.0815 43.1368C15.7432 41.5729 15.5651 39.9494 15.5651 38.2843C15.5651 38.1247 15.5668 37.9655 15.57 37.8066L15.5733 37.8061C15.9425 33.8282 18.7769 30.277 23.1082 27.7747C22.3645 30.0823 21.8491 32.5889 21.6066 35.2272L23.6853 33.1562C24.0303 30.8222 24.6047 28.6248 25.3697 26.6248C28.7333 25.1254 32.7537 24.1917 37.0976 24.0382V31.9776C37.6243 31.661 38.2748 31.1222 38.9606 30.4823V24.0205C43.169 24.0888 47.0945 24.8887 50.4409 26.2296C50.519 26.4248 50.5953 26.6219 50.6697 26.821L55.9223 27.1905C54.6688 26.3323 53.2763 25.5639 51.7689 24.901C50.2607 21.4678 48.2055 18.6307 45.7911 16.673C51.2539 18.5446 55.7822 22.4313 58.4897 27.4465L62.3583 27.6982C58.2929 18.4991 49.0916 12.08 38.3918 12.08C23.9265 12.08 12.2001 23.812 12.2001 38.2843C12.2001 52.7566 23.9265 64.4886 38.3918 64.4886C44.8034 64.4886 50.6769 62.1837 55.2298 58.3569C58.0759 58.4347 60.9354 57.2503 61.5369 56.7546C62.1554 56.2451 62.5222 55.7235 62.6283 55.5263C61.7794 55.9206 59.7817 56.6728 58.5813 56.5272C58.254 56.4875 57.7191 56.4175 57.0681 56.3323C54.7341 56.027 50.9074 55.5263 49.8052 55.5263C48.6775 55.5263 45.1216 56.6182 43.4847 57.1641ZM17.3769 29.3524C19.196 27.594 21.5143 26.0802 24.1965 24.9007C25.5653 21.785 27.3847 19.1601 29.5142 17.2381C24.0629 19.5426 19.6928 23.9051 17.3769 29.3524ZM44.2576 28.3667L39.9832 32.6431L44.9851 31.5967V29.2311L64.2651 30.4139V31.5967L64.9927 31.8242V29.5495L44.2576 28.3667ZM42.1815 36.6156L38.2093 37.403C37.9458 37.4552 37.8157 37.7548 37.9575 37.983L38.574 38.9752C38.6563 39.1077 38.8106 39.1773 38.9644 39.1514L42.8163 38.5028C43.0632 38.4612 43.2051 38.1984 43.1045 37.9692L42.6083 36.8383C42.5358 36.6732 42.3584 36.5806 42.1815 36.6156ZM37.0976 22.162C33.3051 22.2495 29.7277 22.8976 26.5481 23.9851C29.0644 19.1163 32.8361 15.8881 37.0976 15.4931V22.162ZM38.9606 22.1642V15.5022C43.184 15.9351 46.9192 19.1518 49.4172 23.9853C46.2636 22.9066 42.7186 22.2602 38.9606 22.1642Z" fill="#8091E8"/>
</g>
<defs>
<filter id="filter0_d_187_113" x="0" y="0" width="82" height="82" filterUnits="userSpaceOnUse" color-interpolation-filters="sRGB">
<feFlood flood-opacity="0" result="BackgroundImageFix"/>
<feColorMatrix in="SourceAlpha" type="matrix" values="0 0 0 0 0 0 0 0 0 0 0 0 0 0 0 0 0 0 127 0" result="hardAlpha"/>
<feOffset dy="3"/>
<feGaussianBlur stdDeviation="2.5"/>
<feComposite in2="hardAlpha" operator="out"/>
<feColorMatrix type="matrix" values="0 0 0 0 0 0 0 0 0 0 0 0 0 0 0 0 0 0 0.25 0"/>
<feBlend mode="normal" in2="BackgroundImageFix" result="effect1_dropShadow_187_113"/>
<feBlend mode="normal" in="SourceGraphic" in2="effect1_dropShadow_187_113" result="shape"/>
</filter>
<filter id="filter1_d_187_113" x="10.2001" y="12.08" width="61.6" height="56.4087" filterUnits="userSpaceOnUse" color-interpolation-filters="sRGB">
<feFlood flood-opacity="0" result="BackgroundImageFix"/>
<feColorMatrix in="SourceAlpha" type="matrix" values="0 0 0 0 0 0 0 0 0 0 0 0 0 0 0 0 0 0 127 0" result="hardAlpha"/>
<feOffset dy="2"/>
<feGaussianBlur stdDeviation="1"/>
<feComposite in2="hardAlpha" operator="out"/>
<feColorMatrix type="matrix" values="0 0 0 0 0 0 0 0 0 0 0 0 0 0 0 0 0 0 0.25 0"/>
<feBlend mode="normal" in2="BackgroundImageFix" result="effect1_dropShadow_187_113"/>
<feBlend mode="normal" in="SourceGraphic" in2="effect1_dropShadow_187_113" result="shape"/>
</filter>
</defs>
</svg>
