<svg width="140" height="140" viewBox="0 0 140 140" fill="none" xmlns="http://www.w3.org/2000/svg">
<path d="M87.4967 26.2501C87.4967 37.7388 84.8367 48.1951 80.4967 56.0001C78.6591 54.6159 76.5655 53.6094 74.3368 53.0388C72.1081 52.4681 69.7884 52.3445 67.5117 52.6751C65.0617 44.0826 59.5492 34.8251 51.4292 26.6963C50.0506 25.3154 48.6174 23.9902 47.133 22.7238C54.2604 19.2739 62.0783 17.4877 69.9967 17.5001C76.043 17.5001 81.853 18.5238 87.2605 20.4051C87.418 22.3213 87.4967 24.2726 87.4967 26.2501ZM87.4967 70.0001C87.4967 70.6388 87.4617 71.2776 87.3917 71.8988C96.2992 71.7326 106.642 68.8101 116.538 63.0963C118.242 62.1107 119.906 61.0569 121.525 59.9376C118.861 46.298 110.901 34.2697 99.388 26.4863C99.0331 28.3678 98.6099 30.2357 98.1192 32.0863C95.1442 43.1901 89.8592 52.6138 83.6292 59.0276C86.053 62.0288 87.4967 65.8526 87.4967 70.0001ZM86.298 76.3701C85.4537 78.5246 84.1919 80.491 82.5852 82.1563C80.9784 83.8217 79.0584 85.153 76.9355 86.0738C81.5292 93.6863 89.2292 101.168 99.1167 106.873C100.867 107.888 102.634 108.815 104.41 109.646C109.627 105.129 113.899 99.6262 116.981 93.4531C120.064 87.28 121.897 80.5586 122.374 73.6751C120.554 74.3138 118.69 74.9001 116.765 75.4163C105.705 78.3826 94.9517 78.5313 86.298 76.3788V76.3701ZM69.9967 87.5001C66.0592 87.5001 62.4192 86.1963 59.4967 84.0001C55.1742 91.7876 52.5317 102.218 52.5317 113.671C52.5317 115.684 52.6192 117.67 52.768 119.604C58.3084 121.526 64.1322 122.505 69.9967 122.5C78.2217 122.5 86.0092 120.61 92.948 117.233C91.445 115.956 89.9942 114.619 88.5992 113.225C80.5055 105.123 74.993 95.8913 72.5342 87.3251C71.7117 87.4388 70.863 87.5001 69.9967 87.5001ZM52.4967 70.0001C52.4967 69.3001 52.5405 68.6001 52.6192 67.9088C43.6942 68.0576 33.3255 70.9801 23.3942 76.7201C21.6962 77.7002 20.0381 78.7481 18.4242 79.8613C19.7206 86.637 22.339 93.0909 26.1299 98.8545C29.9208 104.618 34.8099 109.579 40.518 113.453C40.8733 111.531 41.3053 109.625 41.813 107.739C44.788 96.6526 50.038 87.2463 56.2505 80.8326C53.8111 77.7497 52.4879 73.9313 52.4967 70.0001ZM23.2105 64.4701C34.2967 61.4951 45.068 61.3638 53.7305 63.5338C55.4455 59.2113 58.8317 55.7463 63.093 53.9088C58.508 46.2613 50.7905 38.7451 40.8592 33.0138C39.1639 32.0347 37.43 31.1239 35.6617 30.2838C30.4399 34.7907 26.1595 40.2846 23.0663 46.45C19.9731 52.6154 18.1279 59.331 17.6367 66.2113C19.4392 65.5638 21.2942 64.9863 23.2105 64.4701ZM69.9967 78.7501C72.3174 78.7501 74.543 77.8282 76.1839 76.1873C77.8248 74.5463 78.7467 72.3207 78.7467 70.0001C78.7467 67.6794 77.8248 65.4538 76.1839 63.8129C74.543 62.1719 72.3174 61.2501 69.9967 61.2501C67.6761 61.2501 65.4505 62.1719 63.8095 63.8129C62.1686 65.4538 61.2467 67.6794 61.2467 70.0001C61.2467 72.3207 62.1686 74.5463 63.8095 76.1873C65.4505 77.8282 67.6761 78.7501 69.9967 78.7501Z" fill="#006BA8"/>
<path d="M48.9498 22.9805C55.5639 20.0182 62.7364 18.4887 69.9952 18.5001H69.9967C75.6998 18.5001 81.1869 19.4282 86.3142 21.1391C86.4358 22.8175 86.4967 24.5232 86.4967 26.2501C86.4967 37.1157 84.0856 47.0089 80.1514 54.5337C78.4476 53.4109 76.5668 52.5775 74.5849 52.07C72.5093 51.5385 70.3591 51.3738 68.2311 51.5808C65.6189 43.0383 60.1028 33.9644 52.1369 25.9898C51.1043 24.9555 50.0415 23.952 48.9498 22.9805ZM99.0852 32.3451L99.0858 32.3426C99.4512 30.9646 99.7796 29.5772 100.071 28.1818C110.517 35.7005 117.782 46.8663 120.414 59.4864C118.988 60.4529 117.529 61.3682 116.037 62.2307C106.676 67.6356 96.9404 70.4914 88.4765 70.8643C88.49 70.5769 88.4967 70.2884 88.4967 70.0001C88.4967 65.9322 87.1818 62.1563 84.9439 59.0973C91.047 52.5666 96.1674 43.2351 99.0852 32.3451ZM86.8881 77.5477C95.5783 79.5355 106.174 79.2923 117.024 76.3822C118.466 75.9957 119.872 75.5709 121.25 75.115C120.633 81.3392 118.885 87.403 116.087 93.0063C113.16 98.8673 109.14 104.113 104.245 108.461C102.695 107.716 101.15 106.896 99.6184 106.008L99.6165 106.006C90.2656 100.611 82.9285 93.6236 78.377 86.4995C80.2081 85.566 81.874 84.3336 83.3048 82.8507C84.7988 81.3022 86.0106 79.5075 86.8881 77.5477ZM69.9967 121.5H69.9958C64.462 121.505 58.9651 120.617 53.7171 118.87C53.5994 117.167 53.5317 115.428 53.5317 113.671C53.5317 102.84 55.9265 92.9729 59.8433 85.4661C62.7572 87.3829 66.2505 88.5001 69.9967 88.5001C70.6123 88.5001 71.2193 88.4707 71.815 88.4149C74.435 96.9325 79.9505 105.982 87.8917 113.932L87.8924 113.932C88.9412 114.98 90.0211 115.997 91.1307 116.98C84.6791 119.886 77.526 121.5 69.9967 121.5ZM23.8941 77.5862L23.8946 77.5859C33.2884 72.1565 43.0475 69.2999 51.5273 68.9414C51.5073 69.2921 51.4968 69.6446 51.4967 69.9978C51.4881 73.8643 52.6978 77.6274 54.9423 80.7577C48.8546 87.2879 43.7654 96.6048 40.8471 107.48C40.4667 108.893 40.1282 110.318 39.8321 111.751C34.766 108.09 30.4049 103.534 26.9654 98.305C23.3665 92.8333 20.8448 86.7272 19.5333 80.3147C20.954 79.3537 22.4085 78.4436 23.8941 77.5862ZM22.9513 63.5042L22.9503 63.5045C21.5243 63.8887 20.1305 64.3067 18.7654 64.7622C19.3952 58.5454 21.1542 52.4912 23.9601 46.8984C26.8966 41.0454 30.9237 35.8095 35.8232 31.4709C37.3632 32.2198 38.8761 33.0232 40.3591 33.8798L40.3594 33.8799C49.7533 39.3011 57.1082 46.3223 61.653 53.4797C57.8998 55.3828 54.8826 58.5172 53.1411 62.3637C44.4418 60.3586 33.8284 60.5854 22.9513 63.5042ZM75.4768 75.4801C74.0234 76.9336 72.0521 77.7501 69.9967 77.7501C67.9413 77.7501 65.9701 76.9336 64.5166 75.4801C63.0632 74.0267 62.2467 72.0555 62.2467 70.0001C62.2467 67.9446 63.0632 65.9734 64.5166 64.52C65.9701 63.0666 67.9413 62.2501 69.9967 62.2501C72.0521 62.2501 74.0234 63.0666 75.4768 64.52C76.9302 65.9734 77.7467 67.9446 77.7467 70.0001C77.7467 72.0555 76.9302 74.0267 75.4768 75.4801Z" stroke="black" stroke-opacity="0.4" stroke-width="2"/>
<path d="M70 131.25C53.7555 131.25 38.1763 124.797 26.6897 113.31C15.2031 101.824 8.75 86.2445 8.75 70C8.75 53.7555 15.2031 38.1763 26.6897 26.6897C38.1763 15.2031 53.7555 8.75 70 8.75C86.2445 8.75 101.824 15.2031 113.31 26.6897C124.797 38.1763 131.25 53.7555 131.25 70C131.25 86.2445 124.797 101.824 113.31 113.31C101.824 124.797 86.2445 131.25 70 131.25ZM70 140C88.5652 140 106.37 132.625 119.497 119.497C132.625 106.37 140 88.5652 140 70C140 51.4348 132.625 33.6301 119.497 20.5025C106.37 7.37498 88.5652 0 70 0C51.4348 0 33.6301 7.37498 20.5025 20.5025C7.37498 33.6301 0 51.4348 0 70C0 88.5652 7.37498 106.37 20.5025 119.497C33.6301 132.625 51.4348 140 70 140Z" fill="#006BA8"/>
<path d="M25.9826 114.017C37.6567 125.692 53.4903 132.25 70 132.25C86.5097 132.25 102.343 125.692 114.017 114.017C125.692 102.343 132.25 86.5097 132.25 70C132.25 53.4903 125.692 37.6567 114.017 25.9826C102.343 14.3085 86.5097 7.75 70 7.75C53.4903 7.75 37.6567 14.3085 25.9826 25.9826C14.3085 37.6567 7.75 53.4903 7.75 70C7.75 86.5097 14.3085 102.343 25.9826 114.017ZM118.79 118.79C105.85 131.73 88.2999 139 70 139C51.7001 139 34.1496 131.73 21.2096 118.79C8.26962 105.85 1 88.2999 1 70C1 51.7001 8.26962 34.1496 21.2096 21.2096C34.1496 8.26962 51.7001 1 70 1C88.2999 1 105.85 8.26962 118.79 21.2096C131.73 34.1496 139 51.7001 139 70C139 88.2999 131.73 105.85 118.79 118.79Z" stroke="black" stroke-opacity="0.4" stroke-width="2"/>
</svg>
