<svg width="145" height="52" viewBox="0 0 145 52" fill="none" xmlns="http://www.w3.org/2000/svg">
<path d="M74.7148 18.8047C74.6497 18.0495 74.4154 17.4049 74.0117 16.8711C73.6081 16.3372 73.0482 15.9336 72.332 15.6602C71.6289 15.3867 70.7956 15.25 69.832 15.25C68.8685 15.25 68.0417 15.3867 67.3516 15.6602C66.6615 15.9336 66.1341 16.3177 65.7695 16.8125C65.4049 17.2943 65.2227 17.8477 65.2227 18.4727C65.1966 19.4362 65.5872 20.1914 66.3945 20.7383C67.2018 21.2721 68.3151 21.7018 69.7344 22.0273L72.2734 22.6328C74.9427 23.2448 77.0195 24.2148 78.5039 25.543C80.0013 26.8711 80.75 28.668 80.75 30.9336C80.75 32.6523 80.3138 34.1497 79.4414 35.4258C78.582 36.7018 77.3255 37.6849 75.6719 38.375C74.0312 39.0521 72.0716 39.3906 69.793 39.3906C67.5013 39.4036 65.5156 39.0586 63.8359 38.3555C62.1693 37.6393 60.8672 36.5977 59.9297 35.2305C59.0052 33.8503 58.5104 32.1641 58.4453 30.1719H64.1484C64.2135 31.0964 64.487 31.8841 64.9688 32.5352C65.4505 33.1732 66.0951 33.6549 66.9023 33.9805C67.7227 34.293 68.6667 34.4492 69.7344 34.4492C70.75 34.4492 71.6419 34.2995 72.4102 34C73.1784 33.7005 73.7708 33.2839 74.1875 32.75C74.6042 32.2161 74.8125 31.5977 74.8125 30.8945C74.8125 30.2695 74.6302 29.7357 74.2656 29.293C73.901 28.8503 73.3672 28.4792 72.6641 28.1797C71.974 27.8802 71.082 27.5938 69.9883 27.3203L66.8828 26.5781C64.4089 25.9661 62.5078 25.0352 61.1797 23.7852C59.8516 22.5221 59.194 20.8815 59.207 18.8633C59.207 17.1836 59.6628 15.6927 60.5742 14.3906C61.4857 13.0885 62.7487 12.0859 64.3633 11.3828C65.9909 10.6797 67.8333 10.3281 69.8906 10.3281C71.9479 10.3281 73.7643 10.6862 75.3398 11.4023C76.9284 12.1055 78.1589 13.1016 79.0312 14.3906C79.9036 15.6797 80.3464 17.151 80.3594 18.8047H74.7148ZM100.242 29.1953L102.84 32.5352L105.281 35.3867L110.008 41.3438H104.5L101.238 37.3203L99.6172 35.0156L95.2227 29.1953H100.242ZM110.457 24.8594C110.457 27.8672 109.884 30.4648 108.738 32.6523C107.605 34.8398 106.036 36.513 104.031 37.6719C102.039 38.8177 99.7799 39.3906 97.2539 39.3906C94.7279 39.3906 92.4622 38.8177 90.457 37.6719C88.4648 36.513 86.8958 34.8398 85.75 32.6523C84.6172 30.4518 84.0508 27.8542 84.0508 24.8594C84.0508 21.8516 84.6172 19.2539 85.75 17.0664C86.8958 14.8659 88.4648 13.1927 90.457 12.0469C92.4622 10.901 94.7279 10.3281 97.2539 10.3281C99.7799 10.3281 102.039 10.901 104.031 12.0469C106.036 13.1927 107.605 14.8659 108.738 17.0664C109.884 19.2539 110.457 21.8516 110.457 24.8594ZM104.52 24.8594C104.52 22.8672 104.22 21.1745 103.621 19.7812C103.035 18.388 102.195 17.3333 101.102 16.6172C100.008 15.888 98.7253 15.5234 97.2539 15.5234C95.7956 15.5234 94.5195 15.888 93.4258 16.6172C92.3451 17.3333 91.4987 18.388 90.8867 19.7812C90.2878 21.1745 89.9883 22.8672 89.9883 24.8594C89.9883 26.8385 90.2878 28.5247 90.8867 29.918C91.4987 31.2982 92.3451 32.3529 93.4258 33.082C94.5195 33.8112 95.7956 34.1823 97.2539 34.1953C98.7253 34.1823 100.008 33.8112 101.102 33.082C102.195 32.3529 103.035 31.2982 103.621 29.918C104.22 28.5247 104.52 26.8385 104.52 24.8594ZM133.504 19.8398C133.243 18.9414 132.833 18.1732 132.273 17.5352C131.727 16.8841 131.049 16.3893 130.242 16.0508C129.435 15.6992 128.517 15.5234 127.488 15.5234C126.03 15.5234 124.747 15.888 123.641 16.6172C122.547 17.3464 121.688 18.4141 121.062 19.8203C120.451 21.2135 120.145 22.8867 120.145 24.8398C120.145 26.806 120.451 28.4857 121.062 29.8789C121.674 31.2721 122.534 32.3398 123.641 33.082C124.747 33.8112 126.049 34.1823 127.547 34.1953C128.888 34.1953 130.053 33.9479 131.043 33.4531C132.033 32.9583 132.781 32.2617 133.289 31.3633C133.797 30.4648 134.057 29.4036 134.07 28.1797L135.281 28.3555H127.938V23.8828H139.734V27.4375C139.734 29.8724 139.22 31.9948 138.191 33.8047C137.163 35.6016 135.717 36.9818 133.855 37.9453C132.007 38.9089 129.897 39.3906 127.527 39.3906C124.884 39.3906 122.553 38.8047 120.535 37.6328C118.53 36.4479 116.974 34.7617 115.867 32.5742C114.76 30.3867 114.207 27.8216 114.207 24.8789C114.207 21.9102 114.78 19.3255 115.926 17.125C117.072 14.9245 118.641 13.2448 120.633 12.0859C122.625 10.9141 124.878 10.3281 127.391 10.3281C129.487 10.3281 131.408 10.7318 133.152 11.5391C134.91 12.3333 136.336 13.4531 137.43 14.8984C138.536 16.3438 139.22 17.9909 139.48 19.8398H133.504Z" fill="#242377"/>
<g filter="url(#filter0_d_352_37)">
<path fill-rule="evenodd" clip-rule="evenodd" d="M28.5748 41.425C29.8932 41.3187 32.5959 41.2638 34.8202 41.6661C31.7795 43.7608 28.1486 44.978 24.2488 44.978C18.4152 44.978 13.1833 42.2543 9.62862 37.9443C9.87741 37.9948 10.1954 38.0452 10.6523 38.0763C11.7703 38.1526 14.0417 38.7006 16.3738 39.2632C19.0371 39.9058 21.7796 40.5674 22.9741 40.5674C24.7663 40.5674 25.6779 40.2952 25.9096 40.1591C23.7872 39.9395 19.4099 39.2087 17.255 37.9313C25.0917 38.0796 36.5133 38.3085 43.1755 38.4439C43.433 38.2533 43.6622 37.57 42.5188 36.3612C42.2477 36.0745 41.9918 35.8173 41.7553 35.5793C40.7448 34.5633 40.0854 33.9002 40.0854 32.8083C40.0854 31.4606 40.124 31.0931 40.8193 32.8083C41.3632 34.1501 42.1908 33.3425 43.1172 32.4384C43.375 32.1869 43.6403 31.9279 43.9093 31.7056C43.9673 31.6578 44.0337 31.6032 44.1075 31.5424C45.6097 30.3064 50.2272 26.5071 50.6688 24.5998C51.1323 22.5988 51.2484 21.7412 48.6218 20.7611C45.9952 19.781 42.4416 19.005 38.3858 18.9642C34.3301 18.9234 25.5619 20.6385 23.7851 21.2103C22.0299 21.7751 21.4432 22.6587 20.2004 24.5304L20.1543 24.5998C20.0047 24.825 19.8664 25.0356 19.7366 25.233C18.7602 26.7188 18.2711 27.4631 17.1801 28.1119C16.3364 28.6137 10.746 31.5494 6.86788 33.5756C6.66838 33.1505 6.48243 32.717 6.31066 32.2757C9.74181 30.5598 15.1937 27.8176 15.9441 27.3768C16.7784 26.8868 17.605 26.1925 17.914 25.9066V21.537H20.4247L21.5063 20.8019H17.3733L13.8969 24.3548V21.292H14.9012L15.9441 20.3118H13.472L5.29707 28.8332C5.00974 27.4294 4.85844 25.972 4.85844 24.4773C4.85844 24.334 4.85986 24.1911 4.86264 24.0485L4.86537 24.048C5.17905 20.4772 7.58674 17.2894 11.266 15.0432C10.6342 17.1147 10.1964 19.3647 9.99044 21.7331L11.7562 19.8739C12.0492 17.7788 12.5372 15.8063 13.187 14.011C16.0442 12.665 19.4594 11.8269 23.1493 11.689V18.816C23.5967 18.5318 24.1493 18.0482 24.7318 17.4737V11.6732C28.3067 11.7345 31.6413 12.4525 34.4838 13.6562C34.5502 13.8314 34.615 14.0084 34.6782 14.1871L39.14 14.5188C38.0752 13.7484 36.8924 13.0586 35.6119 12.4636C34.3308 9.38176 32.585 6.83493 30.5341 5.07761C35.1745 6.75771 39.021 10.2466 41.3209 14.7485L44.6071 14.9745C41.1538 6.71682 33.3377 0.95459 24.2487 0.95459C11.9611 0.95459 2 11.486 2 24.4773C2 37.4685 11.9611 48 24.2487 48C29.695 48 34.6843 45.9309 38.5518 42.4957C40.9694 42.5656 43.3984 41.5024 43.9094 41.0575C44.4347 40.6001 44.7463 40.1318 44.8365 39.9548C44.1154 40.3088 42.4184 40.984 41.3987 40.8533C41.1207 40.8177 40.6663 40.7548 40.1133 40.6784C38.1307 40.4043 34.8801 39.9548 33.9439 39.9548C32.9859 39.9548 29.9654 40.935 28.5748 41.425ZM6.39749 16.4594C7.94268 14.881 9.912 13.5221 12.1904 12.4633C13.3532 9.66648 14.8986 7.31016 16.7075 5.58485C12.0769 7.65351 8.36477 11.5696 6.39749 16.4594ZM29.2314 15.5746L25.6005 19.4134L29.8494 18.4741V16.3505L46.2269 17.4123V18.4741L46.8449 18.6783V16.6364L29.2314 15.5746ZM27.4678 22.9794L24.0936 23.6862C23.8698 23.7331 23.7593 24.002 23.8798 24.2068L24.4034 25.0975C24.4734 25.2164 24.6044 25.2789 24.7351 25.2557L28.0071 24.6734C28.2168 24.6361 28.3374 24.4002 28.2519 24.1944L27.8304 23.1793C27.7688 23.031 27.6181 22.9479 27.4678 22.9794ZM23.1493 10.0048C19.9278 10.0835 16.8889 10.6652 14.188 11.6414C16.3255 7.27082 19.5294 4.37298 23.1493 4.01848V10.0048ZM24.7318 10.0069V4.02658C28.3194 4.41526 31.4923 7.30272 33.6142 11.6416C30.9354 10.6733 27.9241 10.093 24.7318 10.0069Z" fill="#8091E8"/>
</g>
<defs>
<filter id="filter0_d_352_37" x="0" y="0.95459" width="52.9287" height="51.0454" filterUnits="userSpaceOnUse" color-interpolation-filters="sRGB">
<feFlood flood-opacity="0" result="BackgroundImageFix"/>
<feColorMatrix in="SourceAlpha" type="matrix" values="0 0 0 0 0 0 0 0 0 0 0 0 0 0 0 0 0 0 127 0" result="hardAlpha"/>
<feOffset dy="2"/>
<feGaussianBlur stdDeviation="1"/>
<feComposite in2="hardAlpha" operator="out"/>
<feColorMatrix type="matrix" values="0 0 0 0 0 0 0 0 0 0 0 0 0 0 0 0 0 0 0.25 0"/>
<feBlend mode="normal" in2="BackgroundImageFix" result="effect1_dropShadow_352_37"/>
<feBlend mode="normal" in="SourceGraphic" in2="effect1_dropShadow_352_37" result="shape"/>
</filter>
</defs>
</svg>
