<svg width="25" height="25" viewBox="0 0 25 25" fill="none" xmlns="http://www.w3.org/2000/svg">
<path d="M12.5339 12.5C10.8839 12.5 9.47143 11.888 8.29643 10.6641C7.12144 9.4401 6.53393 7.96875 6.53393 6.25C6.53393 4.53125 7.12144 3.0599 8.29643 1.83594C9.47143 0.611979 10.8839 0 12.5339 0C14.1839 0 15.5964 0.611979 16.7714 1.83594C17.9464 3.0599 18.5339 4.53125 18.5339 6.25C18.5339 7.96875 17.9464 9.4401 16.7714 10.6641C15.5964 11.888 14.1839 12.5 12.5339 12.5ZM4.90894 25C2.49269 25 0.533936 23.0412 0.533936 20.625V20.625C0.533936 19.7396 0.752936 18.9255 1.19094 18.1828C1.62894 17.4401 2.20994 16.874 2.93394 16.4844C4.48393 15.6771 6.05893 15.0714 7.65893 14.6672C9.25893 14.263 10.8839 14.0615 12.5339 14.0625C14.1839 14.0625 15.8089 14.2646 17.4089 14.6687C19.0089 15.0729 20.5839 15.6781 22.1339 16.4844C22.8589 16.875 23.4404 17.4417 23.8784 18.1844C24.3164 18.9271 24.5349 19.7406 24.5339 20.625V20.625C24.5339 23.0412 22.5752 25 20.1589 25H4.90894Z" fill="#006BA8"/>
</svg>
