<svg width="31" height="32" viewBox="0 0 31 32" fill="none" xmlns="http://www.w3.org/2000/svg">
<path d="M13.98 6.27903V0.663086H16.715V6.27903H13.98ZM23.0739 10.14L21.1936 8.20951L25.0226 4.17305L26.9371 6.17373L23.0739 10.14ZM24.92 17.5109V14.7029H30.39V17.5109H24.92ZM13.98 31.5508V25.9348H16.715V31.5508H13.98ZM7.62108 10.0698L3.72369 6.17373L5.67239 4.20815L9.53559 8.17441L7.62108 10.0698ZM24.9884 28.0408L21.1936 24.0043L23.0397 22.109L26.9371 25.9699L24.9884 28.0408ZM0.304932 17.5109V14.7029H5.77495V17.5109H0.304932ZM5.67239 28.0408L3.75788 26.0401L7.58689 22.109L8.57834 23.0567L9.56978 24.0394L5.67239 28.0408ZM15.3475 24.5308C13.0683 24.5308 11.131 23.7119 9.53559 22.0739C7.94017 20.4359 7.14246 18.4469 7.14246 16.1069C7.14246 13.767 7.94017 11.778 9.53559 10.14C11.131 8.50201 13.0683 7.68301 15.3475 7.68301C17.6267 7.68301 19.564 8.50201 21.1594 10.14C22.7548 11.778 23.5525 13.767 23.5525 16.1069C23.5525 18.4469 22.7548 20.4359 21.1594 22.0739C19.564 23.7119 17.6267 24.5308 15.3475 24.5308Z" fill="#006BA8"/>
</svg>
