<svg width="31" height="32" viewBox="0 0 31 32" fill="none" xmlns="http://www.w3.org/2000/svg">
<path d="M14.4949 6.2197V0.60376H17.2299V6.2197H14.4949ZM23.5888 10.0807L21.7085 8.15018L25.5375 4.11372L27.452 6.1144L23.5888 10.0807ZM25.4349 17.4516V14.6436H30.9049V17.4516H25.4349ZM14.4949 31.4914V25.8755H17.2299V31.4914H14.4949ZM8.13597 10.0105L4.23859 6.1144L6.18728 4.14882L10.0505 8.11508L8.13597 10.0105ZM25.5033 27.9815L21.7085 23.945L23.5546 22.0496L27.452 25.9106L25.5033 27.9815ZM0.819824 17.4516V14.6436H6.28984V17.4516H0.819824ZM6.18728 27.9815L4.27277 25.9808L8.10179 22.0496L9.09323 22.9973L10.0847 23.9801L6.18728 27.9815ZM15.8624 24.4715C13.5832 24.4715 11.6459 23.6525 10.0505 22.0145C8.45506 20.3766 7.65735 18.3876 7.65735 16.0476C7.65735 13.7076 8.45506 11.7186 10.0505 10.0807C11.6459 8.44268 13.5832 7.62369 15.8624 7.62369C18.1416 7.62369 20.0788 8.44268 21.6743 10.0807C23.2697 11.7186 24.0674 13.7076 24.0674 16.0476C24.0674 18.3876 23.2697 20.3766 21.6743 22.0145C20.0788 23.6525 18.1416 24.4715 15.8624 24.4715Z" fill="#006BA8"/>
</svg>
