<svg width="100" height="36" viewBox="0 0 100 36" fill="none" xmlns="http://www.w3.org/2000/svg">
<path d="M54.0718 13.3779C54.0311 12.9059 53.8846 12.5031 53.6323 12.1694C53.38 11.8358 53.0301 11.5835 52.5825 11.4126C52.1431 11.2417 51.6222 11.1562 51.02 11.1562C50.4178 11.1562 49.901 11.2417 49.4697 11.4126C49.0384 11.5835 48.7088 11.8236 48.481 12.1328C48.2531 12.4339 48.1392 12.7798 48.1392 13.1704C48.1229 13.7726 48.367 14.2446 48.8716 14.5864C49.3761 14.9201 50.0719 15.1886 50.959 15.3921L52.5459 15.7705C54.2142 16.153 55.5122 16.7593 56.4399 17.5894C57.3758 18.4194 57.8438 19.5425 57.8438 20.9585C57.8438 22.0327 57.5711 22.9686 57.0259 23.7661C56.4888 24.5636 55.7035 25.1781 54.6699 25.6094C53.6445 26.0326 52.4198 26.2441 50.9956 26.2441C49.5633 26.2523 48.3223 26.0366 47.2725 25.5972C46.2308 25.1496 45.417 24.4985 44.8311 23.644C44.2533 22.7814 43.944 21.7275 43.9033 20.4824H47.4678C47.5085 21.0602 47.6794 21.5526 47.9805 21.9595C48.2816 22.3582 48.6844 22.6593 49.189 22.8628C49.7017 23.0581 50.2917 23.1558 50.959 23.1558C51.5938 23.1558 52.1512 23.0622 52.6313 22.875C53.1115 22.6878 53.4818 22.4274 53.7422 22.0938C54.0026 21.7601 54.1328 21.3735 54.1328 20.9341C54.1328 20.5435 54.0189 20.2098 53.791 19.9331C53.5632 19.6564 53.2295 19.4245 52.79 19.2373C52.3587 19.0501 51.8013 18.8711 51.1177 18.7002L49.1768 18.2363C47.6305 17.8538 46.4424 17.272 45.6123 16.4907C44.7822 15.7013 44.3713 14.6759 44.3794 13.4146C44.3794 12.3647 44.6642 11.4329 45.2339 10.6191C45.8035 9.80534 46.5929 9.17871 47.6021 8.73926C48.6193 8.2998 49.7708 8.08008 51.0566 8.08008C52.3424 8.08008 53.4777 8.30387 54.4624 8.75146C55.4552 9.19092 56.2243 9.81348 56.7695 10.6191C57.3148 11.4248 57.5915 12.3444 57.5996 13.3779H54.0718ZM70.0264 19.8721L71.6499 21.9595L73.1758 23.7417L76.1299 27.4648H72.6875L70.6489 24.9502L69.6357 23.5098L66.8892 19.8721H70.0264ZM76.4106 17.1621C76.4106 19.042 76.0526 20.6655 75.3364 22.0327C74.6284 23.3999 73.6478 24.4456 72.3945 25.1699C71.1494 25.8861 69.7375 26.2441 68.1587 26.2441C66.5799 26.2441 65.1639 25.8861 63.9106 25.1699C62.6655 24.4456 61.6849 23.3999 60.9688 22.0327C60.2607 20.6574 59.9067 19.0339 59.9067 17.1621C59.9067 15.2822 60.2607 13.6587 60.9688 12.2915C61.6849 10.9162 62.6655 9.87044 63.9106 9.1543C65.1639 8.43815 66.5799 8.08008 68.1587 8.08008C69.7375 8.08008 71.1494 8.43815 72.3945 9.1543C73.6478 9.87044 74.6284 10.9162 75.3364 12.2915C76.0526 13.6587 76.4106 15.2822 76.4106 17.1621ZM72.6997 17.1621C72.6997 15.917 72.5125 14.859 72.1382 13.9883C71.772 13.1175 71.2471 12.4583 70.5635 12.0107C69.8799 11.555 69.0783 11.3271 68.1587 11.3271C67.2472 11.3271 66.4497 11.555 65.7661 12.0107C65.0907 12.4583 64.5617 13.1175 64.1792 13.9883C63.8049 14.859 63.6177 15.917 63.6177 17.1621C63.6177 18.3991 63.8049 19.453 64.1792 20.3237C64.5617 21.1864 65.0907 21.8455 65.7661 22.3013C66.4497 22.757 67.2472 22.9889 68.1587 22.9971C69.0783 22.9889 69.8799 22.757 70.5635 22.3013C71.2471 21.8455 71.772 21.1864 72.1382 20.3237C72.5125 19.453 72.6997 18.3991 72.6997 17.1621ZM90.8149 14.0249C90.6522 13.4634 90.3958 12.9832 90.0459 12.5845C89.7041 12.1776 89.2809 11.8683 88.7764 11.6567C88.2718 11.437 87.6981 11.3271 87.0552 11.3271C86.1437 11.3271 85.3421 11.555 84.6504 12.0107C83.9668 12.4665 83.4297 13.1338 83.0391 14.0127C82.6566 14.8835 82.4653 15.9292 82.4653 17.1499C82.4653 18.3787 82.6566 19.4285 83.0391 20.2993C83.4215 21.1701 83.9587 21.8374 84.6504 22.3013C85.3421 22.757 86.1559 22.9889 87.0918 22.9971C87.93 22.9971 88.6584 22.8424 89.2769 22.5332C89.8953 22.224 90.3633 21.7886 90.6807 21.2271C90.998 20.6655 91.1608 20.0023 91.1689 19.2373L91.9258 19.3472H87.3359V16.5518H94.709V18.7734C94.709 20.2952 94.3875 21.6217 93.7446 22.7529C93.1017 23.876 92.1984 24.7386 91.0347 25.3408C89.8791 25.943 88.5607 26.2441 87.0796 26.2441C85.4276 26.2441 83.9709 25.8779 82.7095 25.1455C81.4562 24.4049 80.4837 23.3511 79.792 21.9839C79.1003 20.6167 78.7544 19.0135 78.7544 17.1743C78.7544 15.3188 79.1125 13.7035 79.8286 12.3281C80.5448 10.9528 81.5254 9.90299 82.7705 9.17871C84.0156 8.44629 85.4235 8.08008 86.9941 8.08008C88.3044 8.08008 89.5047 8.33236 90.5952 8.83691C91.6938 9.33333 92.585 10.0332 93.2686 10.9365C93.9603 11.8398 94.3875 12.8693 94.5503 14.0249H90.8149Z" fill="#131313" fill-opacity="0.7"/>
<g filter="url(#filter0_d_302_101)">
<path fill-rule="evenodd" clip-rule="evenodd" d="M21.0097 27.3949C21.9528 27.3229 23.8862 27.2857 25.4772 27.5581C23.3021 28.976 20.7048 29.7999 17.9152 29.7999C13.7423 29.7999 9.99973 27.9563 7.45697 25.0387C7.63493 25.0729 7.86244 25.107 8.18927 25.1281C8.98901 25.1797 10.6138 25.5507 12.282 25.9315C14.1871 26.3665 16.1489 26.8144 17.0033 26.8144C18.2854 26.8144 18.9375 26.6301 19.1032 26.5379C17.585 26.3893 14.4538 25.8946 12.9123 25.0299C18.5182 25.1303 26.6884 25.2852 31.454 25.377C31.6382 25.2479 31.8021 24.7854 30.9843 23.9671C30.7903 23.7731 30.6073 23.5989 30.4381 23.4379C29.7153 22.7501 29.2436 22.3013 29.2436 21.5621C29.2436 20.6499 29.2712 20.4011 29.7685 21.5621C30.1576 22.4704 30.7496 21.9237 31.4123 21.3117C31.5967 21.1415 31.7865 20.9662 31.9789 20.8157C32.0204 20.7833 32.0679 20.7464 32.1207 20.7052C33.1953 19.8685 36.4983 17.2968 36.8142 16.0057C37.1458 14.6512 37.2288 14.0707 35.3499 13.4072C33.471 12.7438 30.929 12.2186 28.0278 12.1909C25.1266 12.1633 18.8545 13.3243 17.5835 13.7113C16.3279 14.0936 15.9082 14.6918 15.0192 15.9587L14.9863 16.0057C14.8793 16.1582 14.7803 16.3007 14.6875 16.4343C13.9891 17.4401 13.6392 17.9439 12.8587 18.3831C12.2552 18.7227 8.25626 20.7099 5.48213 22.0815C5.33943 21.7937 5.20641 21.5003 5.08354 21.2016C7.53793 20.0401 11.4378 18.1838 11.9746 17.8855C12.5714 17.5538 13.1627 17.0838 13.3838 16.8903V13.9324H15.1797L15.9534 13.4348H12.9969L10.5102 15.8399V13.7666H11.2286L11.9746 13.1031H10.2063L4.35849 18.8713C4.15295 17.9211 4.04472 16.9346 4.04472 15.9228C4.04472 15.8258 4.04574 15.729 4.04773 15.6325L4.04968 15.6322C4.27407 13.2151 5.99635 11.0572 8.62823 9.53676C8.17631 10.9389 7.86315 12.462 7.71579 14.0652L8.97887 12.8067C9.18849 11.3885 9.53756 10.0533 10.0024 8.838C12.0462 7.92691 14.4892 7.35959 17.1287 7.26627V12.0906C17.4487 11.8982 17.844 11.5708 18.2607 11.182V7.25553C20.8179 7.29706 23.2032 7.78308 25.2366 8.59788C25.2841 8.71648 25.3304 8.83628 25.3756 8.95724L28.5673 9.18177C27.8056 8.6603 26.9595 8.19335 26.0436 7.79055C25.1271 5.70445 23.8783 3.98047 22.4112 2.79092C25.7306 3.92819 28.4822 6.28987 30.1274 9.33728L32.4781 9.49024C30.0078 3.90052 24.4167 0 17.9151 0C9.12544 0 2 7.12886 2 15.9228C2 24.7167 9.12544 31.8455 17.9151 31.8455C21.811 31.8455 25.38 30.445 28.1465 28.1197C29.8759 28.1669 31.6135 27.4473 31.979 27.1461C32.3548 26.8365 32.5777 26.5195 32.6421 26.3997C32.1263 26.6393 30.9125 27.0963 30.183 27.0079C29.9842 26.9838 29.6591 26.9412 29.2635 26.8895C27.8453 26.7039 25.5201 26.3997 24.8503 26.3997C24.1651 26.3997 22.0044 27.0632 21.0097 27.3949ZM5.14565 10.4954C6.25097 9.42692 7.65968 8.50708 9.28948 7.7904C10.1213 5.89717 11.2268 4.30215 12.5207 3.13427C9.20832 4.53457 6.5529 7.18541 5.14565 10.4954ZM21.4794 9.89645L18.8821 12.4949L21.9215 11.8592V10.4217L33.6367 11.1404V11.8592L34.0788 11.9974V10.6152L21.4794 9.89645ZM20.2179 14.9088L17.8042 15.3873C17.6441 15.419 17.565 15.601 17.6512 15.7397L18.0258 16.3426C18.0758 16.4231 18.1696 16.4654 18.263 16.4497L20.6036 16.0555C20.7536 16.0303 20.8399 15.8706 20.7787 15.7313L20.4772 15.0441C20.4332 14.9438 20.3253 14.8875 20.2179 14.9088ZM17.1287 6.12621C14.8243 6.17943 12.6505 6.57321 10.7184 7.23401C12.2474 4.27553 14.5393 2.31395 17.1287 2.07398V6.12621ZM18.2607 6.1276V2.07946C20.827 2.34256 23.0967 4.29712 24.6145 7.23412C22.6983 6.5787 20.5442 6.18588 18.2607 6.1276Z" fill="#8091E8"/>
</g>
<defs>
<filter id="filter0_d_302_101" x="0" y="0" width="39" height="35.8456" filterUnits="userSpaceOnUse" color-interpolation-filters="sRGB">
<feFlood flood-opacity="0" result="BackgroundImageFix"/>
<feColorMatrix in="SourceAlpha" type="matrix" values="0 0 0 0 0 0 0 0 0 0 0 0 0 0 0 0 0 0 127 0" result="hardAlpha"/>
<feOffset dy="2"/>
<feGaussianBlur stdDeviation="1"/>
<feComposite in2="hardAlpha" operator="out"/>
<feColorMatrix type="matrix" values="0 0 0 0 0 0 0 0 0 0 0 0 0 0 0 0 0 0 0.25 0"/>
<feBlend mode="normal" in2="BackgroundImageFix" result="effect1_dropShadow_302_101"/>
<feBlend mode="normal" in="SourceGraphic" in2="effect1_dropShadow_302_101" result="shape"/>
</filter>
</defs>
</svg>
