<svg width="44" height="41" viewBox="0 0 44 41" fill="none" xmlns="http://www.w3.org/2000/svg">
<g filter="url(#filter0_d_151_117)">
<path fill-rule="evenodd" clip-rule="evenodd" d="M23.7254 31.3084C24.8032 31.2261 27.0127 31.1837 28.8311 31.4949C26.3453 33.1154 23.3769 34.0571 20.1888 34.0571C15.4197 34.0571 11.1425 31.95 8.23653 28.6157C8.43993 28.6548 8.69993 28.6937 9.07345 28.7178C9.98744 28.7768 11.8443 29.2008 13.7508 29.636C15.9281 30.1331 18.1702 30.645 19.1467 30.645C20.6119 30.645 21.3571 30.4344 21.5466 30.3291C19.8114 30.1592 16.2329 29.5938 14.4712 28.6056C20.8779 28.7204 30.2153 28.8974 35.6617 29.0022C35.8722 28.8548 36.0596 28.3261 35.1249 27.391C34.9032 27.1692 34.694 26.9702 34.5007 26.7861L34.5005 26.7861C33.6745 26 33.1355 25.4872 33.1355 24.6424C33.1355 23.5999 33.167 23.3155 33.7355 24.6424C34.1801 25.6805 34.8567 25.0557 35.614 24.3563C35.8248 24.1617 36.0417 23.9613 36.2616 23.7894C36.309 23.7524 36.3633 23.7102 36.4237 23.6631C37.6517 22.7069 41.4266 19.7678 41.7876 18.2923C42.1666 16.7442 42.2614 16.0808 40.1141 15.3226C37.9668 14.5643 35.0617 13.9641 31.7461 13.9325C28.4304 13.9009 21.2623 15.2278 19.8097 15.6701C18.3748 16.107 17.8951 16.7906 16.8791 18.2386L16.8414 18.2923C16.7192 18.4665 16.6061 18.6293 16.5 18.7821C15.7018 19.9315 15.3019 20.5073 14.41 21.0093C13.7202 21.3974 9.15001 23.6685 5.97958 25.236C5.81649 24.9071 5.66447 24.5718 5.52404 24.2304C8.32907 22.903 12.7861 20.7815 13.3995 20.4405C14.0817 20.0615 14.7574 19.5244 15.01 19.3032V15.9228H17.0626L17.9467 15.3541H14.5679L11.7259 18.1027V15.7332H12.547L13.3995 14.975H11.3786L4.69541 21.5672C4.46052 20.4812 4.33683 19.3538 4.33683 18.1975C4.33683 18.0866 4.33799 17.976 4.34026 17.8657L4.34249 17.8654C4.59893 15.1029 6.56726 12.6368 9.57512 10.8992C9.05864 12.5017 8.70074 14.2423 8.53233 16.0745L9.97585 14.6362C10.2154 13.0154 10.6144 11.4895 11.1456 10.1006C13.4814 9.05933 16.2734 8.41096 19.2899 8.30431V13.8178C19.6557 13.598 20.1075 13.2238 20.5837 12.7794V8.29203C23.5062 8.3395 26.2323 8.89495 28.5561 9.82615C28.6103 9.96169 28.6634 10.0986 28.715 10.2368L32.3626 10.4935C31.4922 9.89749 30.5252 9.36384 29.4784 8.90349C28.431 6.51937 27.0038 4.54911 25.3271 3.18962C29.1207 4.48936 32.2653 7.18842 34.1455 10.6712L36.8321 10.846C34.0089 4.45773 27.6191 0 20.1887 0C10.1434 0 2 8.14727 2 18.1975C2 28.2476 10.1434 36.3949 20.1887 36.3949C24.6412 36.3949 28.72 34.7943 31.8817 32.1367C33.8582 32.1908 35.844 31.3683 36.2617 31.0241C36.6912 30.6703 36.9459 30.308 37.0196 30.1711C36.4301 30.4449 35.0428 30.9672 34.2092 30.8661C33.9819 30.8386 33.6104 30.79 33.1583 30.7308C31.5375 30.5188 28.8801 30.1711 28.1147 30.1711C27.3315 30.1711 24.8622 30.9293 23.7254 31.3084ZM5.59503 11.9947C6.85825 10.7736 8.46821 9.72238 10.3308 8.90332C11.2814 6.73962 12.5449 4.91675 14.0237 3.58202C10.2381 5.18237 7.20331 8.2119 5.59503 11.9947ZM24.2621 11.3102L21.2939 14.2799L24.7674 13.5533V11.9105L38.1563 12.7319V13.5533L38.6615 13.7113V12.1317L24.2621 11.3102ZM22.8204 17.0387L20.062 17.5854C19.879 17.6217 19.7886 17.8297 19.8871 17.9882L20.3152 18.6772C20.3724 18.7693 20.4795 18.8176 20.5863 18.7996L23.2613 18.3492C23.4327 18.3203 23.5313 18.1378 23.4614 17.9786L23.1168 17.1933C23.0665 17.0786 22.9433 17.0143 22.8204 17.0387ZM19.2899 7.00139C16.6563 7.0622 14.172 7.51225 11.9639 8.26744C13.7114 4.88632 16.3306 2.64451 19.2899 2.37026V7.00139ZM20.5837 7.00297V2.37653C23.5166 2.67721 26.1105 4.911 27.8452 8.26757C25.6552 7.51851 23.1934 7.06958 20.5837 7.00297Z" fill="#8091E8"/>
</g>
<defs>
<filter id="filter0_d_151_117" x="0" y="0" width="44" height="40.3949" filterUnits="userSpaceOnUse" color-interpolation-filters="sRGB">
<feFlood flood-opacity="0" result="BackgroundImageFix"/>
<feColorMatrix in="SourceAlpha" type="matrix" values="0 0 0 0 0 0 0 0 0 0 0 0 0 0 0 0 0 0 127 0" result="hardAlpha"/>
<feOffset dy="2"/>
<feGaussianBlur stdDeviation="1"/>
<feComposite in2="hardAlpha" operator="out"/>
<feColorMatrix type="matrix" values="0 0 0 0 0 0 0 0 0 0 0 0 0 0 0 0 0 0 0.25 0"/>
<feBlend mode="normal" in2="BackgroundImageFix" result="effect1_dropShadow_151_117"/>
<feBlend mode="normal" in="SourceGraphic" in2="effect1_dropShadow_151_117" result="shape"/>
</filter>
</defs>
</svg>
