<svg width="100" height="40" viewBox="0 0 100 40" fill="none" xmlns="http://www.w3.org/2000/svg">
<rect width="100" height="40" rx="10" fill="#F42E2E"/>
<path d="M5.22 28L2.36 13.2H5.38L6.54 20.42C6.78 21.98 7 23.56 7.24 25.16H7.32C7.62 23.56 7.94 21.98 8.26 20.42L9.96 13.2H12.5L14.22 20.42C14.54 21.96 14.82 23.56 15.16 25.16H15.26C15.46 23.56 15.7 21.98 15.9 20.42L17.1 13.2H19.9L17.16 28H13.46L11.82 20.68C11.56 19.54 11.36 18.38 11.18 17.26H11.1C10.9 18.38 10.68 19.54 10.46 20.68L8.84 28H5.22ZM20.2208 28L24.9608 13.2H28.4408L33.1808 28H30.0808L27.9608 20.3C27.5208 18.76 27.1008 17.04 26.6808 15.46H26.6008C26.2008 17.06 25.7808 18.76 25.3408 20.3L23.2208 28H20.2208ZM23.1608 24.2V21.92H30.2008V24.2H23.1608ZM34.9333 28V13.2H40.0733C43.1733 13.2 45.6333 14.28 45.6333 17.68C45.6333 20.98 43.1733 22.42 40.0733 22.42H37.8933V28H34.9333ZM37.8933 20.08H39.7933C41.7133 20.08 42.7533 19.26 42.7533 17.68C42.7533 16.1 41.7133 15.56 39.7933 15.56H37.8933V20.08ZM42.9733 28L39.5333 21.66L41.5933 19.8L46.2733 28H42.9733ZM48.5661 28V13.2H51.5661L55.8661 21.1L57.3661 24.3H57.4661C57.3061 22.76 57.0661 20.78 57.0661 19.1V13.2H59.8861V28H56.8661L52.5861 20.08L51.0861 16.92H50.9861C51.1261 18.5 51.3661 20.36 51.3661 22.08V28H48.5661ZM63.5466 28V13.2H66.5066V28H63.5466ZM70.1481 28V13.2H73.1481L77.4481 21.1L78.9481 24.3H79.0481C78.8881 22.76 78.6481 20.78 78.6481 19.1V13.2H81.4681V28H78.4481L74.1681 20.08L72.6681 16.92H72.5681C72.7081 18.5 72.9481 20.36 72.9481 22.08V28H70.1481ZM91.4886 28.28C87.4686 28.28 84.3886 25.6 84.3886 20.66C84.3886 15.78 87.5486 12.94 91.4886 12.94C93.6086 12.94 95.0886 13.86 96.0486 14.82L94.4886 16.72C93.7486 16.02 92.9086 15.48 91.5886 15.48C89.1086 15.48 87.4086 17.4 87.4086 20.56C87.4086 23.8 88.8886 25.72 91.7886 25.72C92.5086 25.72 93.2286 25.52 93.6486 25.18V22.26H91.0086V19.84H96.2886V26.5C95.2886 27.5 93.5286 28.28 91.4886 28.28Z" fill="white"/>
</svg>
